<?xml version="1.0" encoding="UTF-8" standalone="no" ?>
<!DOCTYPE svg PUBLIC "-//W3C//DTD SVG 1.1//EN" "http://www.w3.org/Graphics/SVG/1.1/DTD/svg11.dtd">
<svg xmlns="http://www.w3.org/2000/svg" xmlns:xlink="http://www.w3.org/1999/xlink" version="1.1" width="512" height="512" viewBox="0 0 512 512" xml:space="preserve">
<desc>Created with Fabric.js 4.6.0</desc>
<defs>
</defs>
<g transform="matrix(1 0 0 1 256.53 256.53)" id="MXV3-lPidZzj_vT856xEL"  >
<path style="stroke: rgb(0,0,0); stroke-width: 0; stroke-dasharray: none; stroke-linecap: butt; stroke-dashoffset: 0; stroke-linejoin: miter; stroke-miterlimit: 4; fill: rgb(28,28,28); fill-rule: nonzero; opacity: 1;" vector-effect="non-scaling-stroke"  transform=" translate(0, 0)" d="M -256 -256 L 256 -256 L 256 256 L -256 256 z" stroke-linecap="round" />
</g>
<g transform="matrix(1 0 0 1 250 250)" id="ABMVS6__TTttTP7HZPczm"  >
<path style="stroke: rgb(100,204,96); stroke-width: 1; stroke-dasharray: none; stroke-linecap: butt; stroke-dashoffset: 0; stroke-linejoin: miter; stroke-miterlimit: 4; fill: none; fill-rule: nonzero; opacity: 1; visibility: hidden;" vector-effect="non-scaling-stroke"  transform=" translate(-250, -250)" d="M 250 0 C 388 0 500 112 500 250 C 500 388 388 500 250 500 C 112 500 0 388 0 250 C 0 112 112 0 250 0 z" stroke-linecap="round" />
</g>
<g transform="matrix(1 0 0 1 250 250)" id="4T7kKctCQ-t87avK4d_b-"  >
<path style="stroke: rgb(225,191,53); stroke-width: 1; stroke-dasharray: none; stroke-linecap: butt; stroke-dashoffset: 0; stroke-linejoin: miter; stroke-miterlimit: 4; fill: none; fill-rule: nonzero; opacity: 1; visibility: hidden;" vector-effect="non-scaling-stroke"  transform=" translate(-250, -250)" d="M 0 106.06602 C 0 47.487379999999995 47.48737 0 106.06602 0 L 393.93397999999996 0 L 393.93397999999996 0 C 452.51261999999997 0 499.99999999999994 47.48737 499.99999999999994 106.06602 L 499.99999999999994 393.93397999999996 L 499.99999999999994 393.93397999999996 C 499.99999999999994 452.51261999999997 452.51262999999994 499.99999999999994 393.93397999999996 499.99999999999994 L 106.06601999999998 499.99999999999994 L 106.06601999999998 499.99999999999994 C 47.48737999999998 499.99999999999994 -1.4210854715202004e-14 452.51262999999994 -1.4210854715202004e-14 393.93397999999996 z" stroke-linecap="round" />
</g>
<g transform="matrix(1 0 0 1 256 256.53)" id="pjOL_L6G7tFmkwWukRH8A"  >
<path style="stroke: none; stroke-width: 1; stroke-dasharray: none; stroke-linecap: butt; stroke-dashoffset: 0; stroke-linejoin: miter; stroke-miterlimit: 4; fill: rgb(255,255,255); fill-rule: nonzero; opacity: 1;" vector-effect="non-scaling-stroke"  transform=" translate(-215.88, -329.39)" d="M 129.228 436.392340426 L 62.776 222.384340426 L 96.224 222.384340426 Q 101.404 222.384340426 104.882 224.826340426 Q 108.36 227.268340426 109.544 231.412340426 L 109.544 231.412340426 L 145.952 359.432340426 Q 147.284 364.168340426 148.394 369.718340426 Q 149.504 375.268340426 150.54 381.484340426 L 150.54 381.484340426 Q 151.724 375.268340426 153.13 369.718340426 Q 154.536 364.168340426 156.164 359.432340426 L 156.164 359.432340426 L 198.196 231.412340426 Q 199.38 228.008340426 202.858 225.196340426 Q 206.336 222.384340426 211.368 222.384340426 L 211.368 222.384340426 L 223.06 222.384340426 Q 228.24 222.384340426 231.644 224.826340426 Q 235.048 227.268340426 236.38 231.412340426 L 236.38 231.412340426 L 278.116 359.432340426 Q 281.372 368.904340426 283.74 380.448340426 L 283.74 380.448340426 Q 284.776 374.676340426 285.886 369.348340426 Q 286.996 364.020340426 288.18 359.432340426 L 288.18 359.432340426 L 324.588 231.412340426 Q 325.624 227.712340426 329.176 225.048340426 Q 332.728 222.384340426 337.76 222.384340426 L 337.76 222.384340426 L 368.988 222.384340426 L 302.536 436.392340426 L 266.572 436.392340426 L 219.804 290.168340426 Q 218.916 287.356340426 217.954 284.100340426 Q 216.992 280.844340426 216.104 277.144340426 L 216.104 277.144340426 Q 215.216 280.844340426 214.254 284.100340426 Q 213.292 287.356340426 212.404 290.168340426 L 212.404 290.168340426 L 165.192 436.392340426 L 129.228 436.392340426 Z" stroke-linecap="round" />
</g>
</svg>